<svg xmlns="http://www.w3.org/2000/svg" viewBox="0 0 290 56" fill="none">
  <!--
    Hoppity wordmark — dark variant (light on dark backgrounds)
    Icon at mid-size (ascender-aligned), Outfit ExtraBold 800, all paths
  -->

  <!-- Rabbit icon -->
  <g transform="translate(2, 7) scale(0.125)">
    <path fill-rule="evenodd" d="
      M 51,8 Q 36,8 36,23 L 36,164
      L 0,258 Q -5,275 5,290 Q 15,305 34,308 L 56,310
      L 253,310 L 268,308 Q 289,305 299,290 Q 309,275 304,258
      L 268,164 L 268,23 Q 268,8 253,8
      L 213,8 Q 198,8 195,23 L 195,150 Q 195,162 183,162
      L 121,162 Q 109,162 109,150 L 109,23 Q 109,8 94,8 Z
      M 68,224 Q 60,224 60,232 L 60,268 Q 60,278 68,278
      L 109,278 Q 117,278 117,268 L 117,232 Q 117,224 109,224 Z
      M 195,224 Q 187,224 187,232 L 187,268 Q 187,278 195,278
      L 236,278 Q 244,278 244,268 L 244,232 Q 244,224 236,224 Z
    " fill="#f1f5f9"/>
  </g>

  <!-- "hoppity" — Outfit ExtraBold 800 as paths -->
  <g transform="translate(46, 42) scale(0.0455, -0.0455)">
    <path d="M368 0V276Q368 310 348.0 329.5Q328 349 297 349Q276 349 259.5 340.0Q243 331 234.0 315.0Q225 299 225 276V0H51V729H225V460Q236 468 249 476Q292 499 349 499Q408 499 451.5 475.5Q495 452 518.5 411.0Q542 370 542 316V0Z" fill="#f1f5f9"/>
    <path transform="translate(583, 0)" d="M292 -11Q213 -11 151.5 22.5Q90 56 54.0 114.5Q18 173 18 246Q18 319 53.5 376.5Q89 434 151.0 467.5Q213 501 291 501Q369 501 430.5 467.5Q492 434 528.0 376.5Q564 319 564 246Q564 173 528.5 114.5Q493 56 431.5 22.5Q370 -11 292 -11ZM291 144Q320 144 341.5 156.5Q363 169 375.0 192.0Q387 215 387 245Q387 275 374.5 297.5Q362 320 341.0 332.5Q320 345 291 345Q263 345 241.0 332.0Q219 319 207.0 296.5Q195 274 195 244Q195 215 207.0 192.0Q219 169 241.0 156.5Q263 144 291 144Z" fill="#f1f5f9"/>
    <path transform="translate(1165, 0)" d="M342 -10Q295 -10 255 7Q237 15 221 25V-207H51V489H225V463Q239 473 256 481Q295 499 342 499Q413 499 467.0 466.5Q521 434 551.5 376.0Q582 318 582 244Q582 171 551.5 113.5Q521 56 467.0 23.0Q413 -10 342 -10ZM309 145Q338 145 360.0 158.0Q382 171 394.0 193.5Q406 216 406.0 245.0Q406 274 394.0 296.0Q382 318 360.0 331.0Q338 344 310 344Q283 344 261.0 331.5Q239 319 227.0 296.5Q215 274 215.0 245.0Q215 216 227.0 193.5Q239 171 260.5 158.0Q282 145 309 145Z" fill="#f1f5f9"/>
    <path transform="translate(1768, 0)" d="M342 -10Q295 -10 255 7Q237 15 221 25V-207H51V489H225V463Q239 473 256 481Q295 499 342 499Q413 499 467.0 466.5Q521 434 551.5 376.0Q582 318 582 244Q582 171 551.5 113.5Q521 56 467.0 23.0Q413 -10 342 -10ZM309 145Q338 145 360.0 158.0Q382 171 394.0 193.5Q406 216 406.0 245.0Q406 274 394.0 296.0Q382 318 360.0 331.0Q338 344 310 344Q283 344 261.0 331.5Q239 319 227.0 296.5Q215 274 215.0 245.0Q215 216 227.0 193.5Q239 171 260.5 158.0Q282 145 309 145Z" fill="#f1f5f9"/>
    <path transform="translate(2371, 0)" d="M50 0V489H225V0ZM137 546Q98 546 72.0 572.5Q46 599 46 639Q46 678 72.0 705.0Q98 732 137 732Q178 732 203.5 705.0Q229 678 229 639Q229 599 203.5 572.5Q178 546 137 546Z" fill="#f1f5f9"/>
    <path transform="translate(2646, 0)" d="M118 0V344H10V489H118V691H292V489H400V344H292V0Z" fill="#f1f5f9"/>
    <path transform="translate(3056, 0)" d="M81 -207 187 25 1 489H187L271 208L355 489H541L340 -1L256 -207Z" fill="#f1f5f9"/>
  </g>
</svg>