<svg xmlns="http://www.w3.org/2000/svg" viewBox="0 0 304 310">
  <!-- Hoppity favicon — auto-adapts to OS light/dark mode -->
  <style>
    .icon { fill: #111111; }
    @media (prefers-color-scheme: dark) {
      .icon { fill: #f1f5f9; }
    }
  </style>
  <path class="icon" fill-rule="evenodd" d="
    M 51,8 Q 36,8 36,23 L 36,164
    L 0,258 Q -5,275 5,290 Q 15,305 34,308 L 56,310
    L 253,310 L 268,308 Q 289,305 299,290 Q 309,275 304,258
    L 268,164 L 268,23 Q 268,8 253,8
    L 213,8 Q 198,8 195,23 L 195,150 Q 195,162 183,162
    L 121,162 Q 109,162 109,150 L 109,23 Q 109,8 94,8 Z
    M 68,224 Q 60,224 60,232 L 60,268 Q 60,278 68,278
    L 109,278 Q 117,278 117,268 L 117,232 Q 117,224 109,224 Z
    M 195,224 Q 187,224 187,232 L 187,268 Q 187,278 195,278
    L 236,278 Q 244,278 244,268 L 244,232 Q 244,224 236,224 Z
  "/>
</svg>